<mxfile host="Electron" modified="2023-11-12T23:23:52.330Z" agent="Mozilla/5.0 (Macintosh; Intel Mac OS X 10_15_7) AppleWebKit/537.36 (KHTML, like Gecko) draw.io/21.6.1 Chrome/112.0.5615.204 Electron/24.6.1 Safari/537.36" etag="qe3qIoZEiAxV8kO0VOZi" version="21.6.1" type="device">
  <diagram name="devops-support" id="DobCF5GK2cq6mivkiMD9">
    <mxGraphModel dx="2228" dy="1708" grid="1" gridSize="10" guides="1" tooltips="1" connect="1" arrows="1" fold="1" page="1" pageScale="1" pageWidth="827" pageHeight="1169" math="0" shadow="0">
      <root>
        <mxCell id="0" />
        <mxCell id="1" parent="0" />
        <mxCell id="pGmbN54esB-qeb39x4uP-24" value="" style="rounded=1;whiteSpace=wrap;html=1;arcSize=3;sketch=1;curveFitting=1;jiggle=2;" vertex="1" parent="1">
          <mxGeometry x="40" y="410" width="850" height="420" as="geometry" />
        </mxCell>
        <mxCell id="pGmbN54esB-qeb39x4uP-4" value="Developers/Testers&lt;br&gt;50+" style="ellipse;whiteSpace=wrap;html=1;aspect=fixed;fillColor=#f5f5f5;fontColor=#333333;strokeColor=#666666;fontSize=16;sketch=1;curveFitting=1;jiggle=2;" vertex="1" parent="1">
          <mxGeometry x="360" y="105" width="240" height="240" as="geometry" />
        </mxCell>
        <mxCell id="pGmbN54esB-qeb39x4uP-5" value="DevOps&lt;br&gt;~10" style="ellipse;whiteSpace=wrap;html=1;aspect=fixed;fillColor=#dae8fc;strokeColor=#6c8ebf;fontSize=16;sketch=1;curveFitting=1;jiggle=2;" vertex="1" parent="1">
          <mxGeometry x="210" y="170" width="110" height="110" as="geometry" />
        </mxCell>
        <mxCell id="pGmbN54esB-qeb39x4uP-6" value="Triage Review" style="rounded=1;whiteSpace=wrap;html=1;sketch=1;curveFitting=1;jiggle=2;fillColor=#f5f5f5;fontColor=#333333;strokeColor=#666666;verticalAlign=top;fontStyle=1" vertex="1" parent="1">
          <mxGeometry x="80" y="480" width="120" height="340" as="geometry" />
        </mxCell>
        <mxCell id="pGmbN54esB-qeb39x4uP-7" value="TODO" style="rounded=1;whiteSpace=wrap;html=1;sketch=1;curveFitting=1;jiggle=2;fillColor=#f5f5f5;fontColor=#333333;strokeColor=#666666;verticalAlign=top;fontStyle=1" vertex="1" parent="1">
          <mxGeometry x="240" y="480" width="120" height="340" as="geometry" />
        </mxCell>
        <mxCell id="pGmbN54esB-qeb39x4uP-8" value="In Progress" style="rounded=1;whiteSpace=wrap;html=1;sketch=1;curveFitting=1;jiggle=2;fillColor=#f5f5f5;fontColor=#333333;strokeColor=#666666;verticalAlign=top;fontStyle=1" vertex="1" parent="1">
          <mxGeometry x="560" y="480" width="120" height="340" as="geometry" />
        </mxCell>
        <mxCell id="pGmbN54esB-qeb39x4uP-10" value="Done" style="rounded=1;whiteSpace=wrap;html=1;sketch=1;curveFitting=1;jiggle=2;fillColor=#f5f5f5;fontColor=#333333;strokeColor=#666666;verticalAlign=top;fontStyle=1" vertex="1" parent="1">
          <mxGeometry x="720" y="480" width="120" height="340" as="geometry" />
        </mxCell>
        <mxCell id="pGmbN54esB-qeb39x4uP-11" value="Blocked" style="rounded=1;whiteSpace=wrap;html=1;sketch=1;curveFitting=1;jiggle=2;fillColor=#f5f5f5;fontColor=#333333;strokeColor=#666666;verticalAlign=top;fontStyle=1" vertex="1" parent="1">
          <mxGeometry x="400" y="480" width="120" height="340" as="geometry" />
        </mxCell>
        <mxCell id="pGmbN54esB-qeb39x4uP-12" value="DOSUP-112" style="rounded=1;whiteSpace=wrap;html=1;sketch=1;curveFitting=1;jiggle=2;fillColor=#f5f5f5;fontColor=#333333;strokeColor=#666666;verticalAlign=top;fontStyle=0;align=left;" vertex="1" parent="1">
          <mxGeometry x="85" y="520" width="110" height="40" as="geometry" />
        </mxCell>
        <mxCell id="pGmbN54esB-qeb39x4uP-13" value="DOSUP-113" style="rounded=1;whiteSpace=wrap;html=1;sketch=1;curveFitting=1;jiggle=2;fillColor=#f5f5f5;fontColor=#333333;strokeColor=#666666;verticalAlign=top;fontStyle=0;align=left;" vertex="1" parent="1">
          <mxGeometry x="85" y="570" width="110" height="40" as="geometry" />
        </mxCell>
        <mxCell id="pGmbN54esB-qeb39x4uP-14" value="DOSUP-115" style="rounded=1;whiteSpace=wrap;html=1;sketch=1;curveFitting=1;jiggle=2;fillColor=#f5f5f5;fontColor=#333333;strokeColor=#666666;verticalAlign=top;fontStyle=0;align=left;" vertex="1" parent="1">
          <mxGeometry x="85" y="620" width="110" height="40" as="geometry" />
        </mxCell>
        <mxCell id="pGmbN54esB-qeb39x4uP-15" value="DOSUP-116" style="rounded=1;whiteSpace=wrap;html=1;sketch=1;curveFitting=1;jiggle=2;fillColor=#f5f5f5;fontColor=#333333;strokeColor=#666666;verticalAlign=top;fontStyle=0;align=left;" vertex="1" parent="1">
          <mxGeometry x="85" y="670" width="110" height="40" as="geometry" />
        </mxCell>
        <mxCell id="pGmbN54esB-qeb39x4uP-16" value="DOSUP-120" style="rounded=1;whiteSpace=wrap;html=1;sketch=1;curveFitting=1;jiggle=2;fillColor=#f5f5f5;fontColor=#333333;strokeColor=#666666;verticalAlign=top;fontStyle=0;align=left;" vertex="1" parent="1">
          <mxGeometry x="85" y="720" width="110" height="40" as="geometry" />
        </mxCell>
        <mxCell id="pGmbN54esB-qeb39x4uP-17" value="DOSUP-122" style="rounded=1;whiteSpace=wrap;html=1;sketch=1;curveFitting=1;jiggle=2;fillColor=#f5f5f5;fontColor=#333333;strokeColor=#666666;verticalAlign=top;fontStyle=0;align=left;" vertex="1" parent="1">
          <mxGeometry x="85" y="770" width="110" height="40" as="geometry" />
        </mxCell>
        <mxCell id="pGmbN54esB-qeb39x4uP-18" value="DOSUP-103" style="rounded=1;whiteSpace=wrap;html=1;sketch=1;curveFitting=1;jiggle=2;fillColor=#f5f5f5;fontColor=#333333;strokeColor=#666666;verticalAlign=top;fontStyle=0;align=left;" vertex="1" parent="1">
          <mxGeometry x="565" y="520" width="110" height="40" as="geometry" />
        </mxCell>
        <mxCell id="pGmbN54esB-qeb39x4uP-19" value="DOSUP-106" style="rounded=1;whiteSpace=wrap;html=1;sketch=1;curveFitting=1;jiggle=2;fillColor=#f5f5f5;fontColor=#333333;strokeColor=#666666;verticalAlign=top;fontStyle=0;align=left;" vertex="1" parent="1">
          <mxGeometry x="565" y="570" width="110" height="40" as="geometry" />
        </mxCell>
        <mxCell id="pGmbN54esB-qeb39x4uP-20" value="DOSUP-110" style="rounded=1;whiteSpace=wrap;html=1;sketch=1;curveFitting=1;jiggle=2;fillColor=#f5f5f5;fontColor=#333333;strokeColor=#666666;verticalAlign=top;fontStyle=0;align=left;" vertex="1" parent="1">
          <mxGeometry x="565" y="620" width="110" height="40" as="geometry" />
        </mxCell>
        <mxCell id="pGmbN54esB-qeb39x4uP-21" value="DOSUP-103" style="rounded=1;whiteSpace=wrap;html=1;sketch=1;curveFitting=1;jiggle=2;fillColor=#f5f5f5;fontColor=#333333;strokeColor=#666666;verticalAlign=top;fontStyle=0;align=left;" vertex="1" parent="1">
          <mxGeometry x="725" y="520" width="110" height="40" as="geometry" />
        </mxCell>
        <mxCell id="pGmbN54esB-qeb39x4uP-22" value="DOSUP-106" style="rounded=1;whiteSpace=wrap;html=1;sketch=1;curveFitting=1;jiggle=2;fillColor=#f5f5f5;fontColor=#333333;strokeColor=#666666;verticalAlign=top;fontStyle=0;align=left;" vertex="1" parent="1">
          <mxGeometry x="725" y="570" width="110" height="40" as="geometry" />
        </mxCell>
        <mxCell id="pGmbN54esB-qeb39x4uP-25" value="Quagmira Â©" style="rounded=1;whiteSpace=wrap;html=1;arcSize=3;sketch=1;curveFitting=1;jiggle=2;align=center;fillColor=#dae8fc;strokeColor=#6c8ebf;" vertex="1" parent="1">
          <mxGeometry x="50" y="420" width="90" height="40" as="geometry" />
        </mxCell>
        <mxCell id="pGmbN54esB-qeb39x4uP-26" value="Support Board" style="rounded=1;whiteSpace=wrap;html=1;arcSize=3;sketch=1;curveFitting=1;jiggle=2;align=center;fillColor=#dae8fc;strokeColor=#6c8ebf;fontSize=15;" vertex="1" parent="1">
          <mxGeometry x="140" y="420" width="730" height="40" as="geometry" />
        </mxCell>
        <mxCell id="pGmbN54esB-qeb39x4uP-30" value="" style="rounded=1;whiteSpace=wrap;html=1;arcSize=3;sketch=1;curveFitting=1;jiggle=2;" vertex="1" parent="1">
          <mxGeometry x="55" y="1040" width="850" height="430" as="geometry" />
        </mxCell>
        <mxCell id="pGmbN54esB-qeb39x4uP-31" value="Triage Review" style="rounded=1;whiteSpace=wrap;html=1;sketch=1;curveFitting=1;jiggle=2;fillColor=#f5f5f5;fontColor=#333333;strokeColor=#666666;verticalAlign=top;fontStyle=1" vertex="1" parent="1">
          <mxGeometry x="95" y="1110" width="120" height="340" as="geometry" />
        </mxCell>
        <mxCell id="pGmbN54esB-qeb39x4uP-32" value="TODO" style="rounded=1;whiteSpace=wrap;html=1;sketch=1;curveFitting=1;jiggle=2;fillColor=#f5f5f5;fontColor=#333333;strokeColor=#666666;verticalAlign=top;fontStyle=1" vertex="1" parent="1">
          <mxGeometry x="255" y="1110" width="120" height="340" as="geometry" />
        </mxCell>
        <mxCell id="pGmbN54esB-qeb39x4uP-33" value="In Progress" style="rounded=1;whiteSpace=wrap;html=1;sketch=1;curveFitting=1;jiggle=2;fillColor=#f5f5f5;fontColor=#333333;strokeColor=#666666;verticalAlign=top;fontStyle=1" vertex="1" parent="1">
          <mxGeometry x="575" y="1110" width="120" height="340" as="geometry" />
        </mxCell>
        <mxCell id="pGmbN54esB-qeb39x4uP-34" value="Done" style="rounded=1;whiteSpace=wrap;html=1;sketch=1;curveFitting=1;jiggle=2;fillColor=#f5f5f5;fontColor=#333333;strokeColor=#666666;verticalAlign=top;fontStyle=1" vertex="1" parent="1">
          <mxGeometry x="735" y="1110" width="120" height="340" as="geometry" />
        </mxCell>
        <mxCell id="pGmbN54esB-qeb39x4uP-35" value="Blocked" style="rounded=1;whiteSpace=wrap;html=1;sketch=1;curveFitting=1;jiggle=2;fillColor=#f5f5f5;fontColor=#333333;strokeColor=#666666;verticalAlign=top;fontStyle=1" vertex="1" parent="1">
          <mxGeometry x="415" y="1110" width="120" height="340" as="geometry" />
        </mxCell>
        <mxCell id="pGmbN54esB-qeb39x4uP-50" style="edgeStyle=orthogonalEdgeStyle;rounded=0;orthogonalLoop=1;jettySize=auto;html=1;entryX=0;entryY=0.5;entryDx=0;entryDy=0;fillColor=#f8cecc;strokeColor=#b85450;sketch=1;curveFitting=1;jiggle=2;" edge="1" parent="1" source="pGmbN54esB-qeb39x4uP-36" target="pGmbN54esB-qeb39x4uP-49">
          <mxGeometry relative="1" as="geometry" />
        </mxCell>
        <mxCell id="pGmbN54esB-qeb39x4uP-36" value="DOSUP-112" style="rounded=1;whiteSpace=wrap;html=1;sketch=1;curveFitting=1;jiggle=2;fillColor=#f5f5f5;fontColor=#333333;strokeColor=#666666;verticalAlign=top;fontStyle=0;align=left;" vertex="1" parent="1">
          <mxGeometry x="100" y="1150" width="110" height="40" as="geometry" />
        </mxCell>
        <mxCell id="pGmbN54esB-qeb39x4uP-37" value="DOSUP-113" style="rounded=1;whiteSpace=wrap;html=1;sketch=1;curveFitting=1;jiggle=2;fillColor=#f5f5f5;fontColor=#333333;strokeColor=#666666;verticalAlign=top;fontStyle=0;align=left;" vertex="1" parent="1">
          <mxGeometry x="100" y="1200" width="110" height="40" as="geometry" />
        </mxCell>
        <mxCell id="pGmbN54esB-qeb39x4uP-38" value="DOSUP-115" style="rounded=1;whiteSpace=wrap;html=1;sketch=1;curveFitting=1;jiggle=2;fillColor=#f5f5f5;fontColor=#333333;strokeColor=#666666;verticalAlign=top;fontStyle=0;align=left;" vertex="1" parent="1">
          <mxGeometry x="100" y="1250" width="110" height="40" as="geometry" />
        </mxCell>
        <mxCell id="pGmbN54esB-qeb39x4uP-39" value="DOSUP-116" style="rounded=1;whiteSpace=wrap;html=1;sketch=1;curveFitting=1;jiggle=2;fillColor=#f5f5f5;fontColor=#333333;strokeColor=#666666;verticalAlign=top;fontStyle=0;align=left;" vertex="1" parent="1">
          <mxGeometry x="100" y="1300" width="110" height="40" as="geometry" />
        </mxCell>
        <mxCell id="pGmbN54esB-qeb39x4uP-40" value="DOSUP-120" style="rounded=1;whiteSpace=wrap;html=1;sketch=1;curveFitting=1;jiggle=2;fillColor=#f5f5f5;fontColor=#333333;strokeColor=#666666;verticalAlign=top;fontStyle=0;align=left;" vertex="1" parent="1">
          <mxGeometry x="100" y="1350" width="110" height="40" as="geometry" />
        </mxCell>
        <mxCell id="pGmbN54esB-qeb39x4uP-41" value="DOSUP-122" style="rounded=1;whiteSpace=wrap;html=1;sketch=1;curveFitting=1;jiggle=2;fillColor=#f5f5f5;fontColor=#333333;strokeColor=#666666;verticalAlign=top;fontStyle=0;align=left;" vertex="1" parent="1">
          <mxGeometry x="100" y="1400" width="110" height="40" as="geometry" />
        </mxCell>
        <mxCell id="pGmbN54esB-qeb39x4uP-42" value="DOSUP-103" style="rounded=1;whiteSpace=wrap;html=1;sketch=1;curveFitting=1;jiggle=2;fillColor=#f5f5f5;fontColor=#333333;strokeColor=#666666;verticalAlign=top;fontStyle=0;align=left;" vertex="1" parent="1">
          <mxGeometry x="580" y="1150" width="110" height="40" as="geometry" />
        </mxCell>
        <mxCell id="pGmbN54esB-qeb39x4uP-43" value="DOSUP-106" style="rounded=1;whiteSpace=wrap;html=1;sketch=1;curveFitting=1;jiggle=2;fillColor=#f5f5f5;fontColor=#333333;strokeColor=#666666;verticalAlign=top;fontStyle=0;align=left;" vertex="1" parent="1">
          <mxGeometry x="580" y="1200" width="110" height="40" as="geometry" />
        </mxCell>
        <mxCell id="pGmbN54esB-qeb39x4uP-55" style="edgeStyle=orthogonalEdgeStyle;rounded=0;orthogonalLoop=1;jettySize=auto;html=1;entryX=1;entryY=0.5;entryDx=0;entryDy=0;fillColor=#f8cecc;strokeColor=#b85450;sketch=1;curveFitting=1;jiggle=2;" edge="1" parent="1" source="pGmbN54esB-qeb39x4uP-44">
          <mxGeometry relative="1" as="geometry">
            <mxPoint x="530" y="1269.9999999999998" as="targetPoint" />
          </mxGeometry>
        </mxCell>
        <mxCell id="pGmbN54esB-qeb39x4uP-44" value="DOSUP-110" style="rounded=1;whiteSpace=wrap;html=1;sketch=1;curveFitting=1;jiggle=2;fillColor=#f5f5f5;fontColor=#333333;strokeColor=#666666;verticalAlign=top;fontStyle=0;align=left;" vertex="1" parent="1">
          <mxGeometry x="580" y="1250" width="110" height="40" as="geometry" />
        </mxCell>
        <mxCell id="pGmbN54esB-qeb39x4uP-45" value="DOSUP-103" style="rounded=1;whiteSpace=wrap;html=1;sketch=1;curveFitting=1;jiggle=2;fillColor=#f5f5f5;fontColor=#333333;strokeColor=#666666;verticalAlign=top;fontStyle=0;align=left;" vertex="1" parent="1">
          <mxGeometry x="740" y="1150" width="110" height="40" as="geometry" />
        </mxCell>
        <mxCell id="pGmbN54esB-qeb39x4uP-46" value="DOSUP-106" style="rounded=1;whiteSpace=wrap;html=1;sketch=1;curveFitting=1;jiggle=2;fillColor=#f5f5f5;fontColor=#333333;strokeColor=#666666;verticalAlign=top;fontStyle=0;align=left;" vertex="1" parent="1">
          <mxGeometry x="740" y="1200" width="110" height="40" as="geometry" />
        </mxCell>
        <mxCell id="pGmbN54esB-qeb39x4uP-47" value="Quagmira Â©" style="rounded=1;whiteSpace=wrap;html=1;arcSize=3;sketch=1;curveFitting=1;jiggle=2;align=center;fillColor=#dae8fc;strokeColor=#6c8ebf;" vertex="1" parent="1">
          <mxGeometry x="65" y="1050" width="90" height="40" as="geometry" />
        </mxCell>
        <mxCell id="pGmbN54esB-qeb39x4uP-48" value="Support Board" style="rounded=1;whiteSpace=wrap;html=1;arcSize=3;sketch=1;curveFitting=1;jiggle=2;align=center;fillColor=#dae8fc;strokeColor=#6c8ebf;fontSize=15;" vertex="1" parent="1">
          <mxGeometry x="155" y="1050" width="730" height="40" as="geometry" />
        </mxCell>
        <mxCell id="pGmbN54esB-qeb39x4uP-49" value="DOSUP-112" style="rounded=1;whiteSpace=wrap;html=1;sketch=1;curveFitting=1;jiggle=2;fillColor=#f5f5f5;fontColor=#333333;strokeColor=#666666;verticalAlign=top;fontStyle=0;align=left;opacity=70;dashed=1;" vertex="1" parent="1">
          <mxGeometry x="260" y="1150" width="110" height="40" as="geometry" />
        </mxCell>
        <mxCell id="pGmbN54esB-qeb39x4uP-52" style="edgeStyle=orthogonalEdgeStyle;rounded=0;orthogonalLoop=1;jettySize=auto;html=1;fillColor=#f8cecc;strokeColor=#b85450;sketch=1;curveFitting=1;jiggle=2;endArrow=none;endFill=0;" edge="1" parent="1" source="pGmbN54esB-qeb39x4uP-51">
          <mxGeometry relative="1" as="geometry">
            <mxPoint x="240" y="1169.9999999999998" as="targetPoint" />
          </mxGeometry>
        </mxCell>
        <mxCell id="pGmbN54esB-qeb39x4uP-51" value="The triage team collectively agree that the work should be either investigated or resolved (noting which in the comment!). It is also assigned to a team and given a priority." style="shape=note;whiteSpace=wrap;html=1;backgroundOutline=1;darkOpacity=0.05;sketch=1;curveFitting=1;jiggle=2;size=9;align=left;verticalAlign=top;" vertex="1" parent="1">
          <mxGeometry x="155" y="1250" width="170" height="100" as="geometry" />
        </mxCell>
        <mxCell id="pGmbN54esB-qeb39x4uP-56" value="DOSUP-110" style="rounded=1;whiteSpace=wrap;html=1;sketch=1;curveFitting=1;jiggle=2;fillColor=#f5f5f5;fontColor=#333333;strokeColor=#666666;verticalAlign=top;fontStyle=0;align=left;opacity=70;dashed=1;" vertex="1" parent="1">
          <mxGeometry x="420" y="1250" width="110" height="40" as="geometry" />
        </mxCell>
        <mxCell id="pGmbN54esB-qeb39x4uP-58" style="edgeStyle=orthogonalEdgeStyle;rounded=0;orthogonalLoop=1;jettySize=auto;html=1;fillColor=#f8cecc;strokeColor=#b85450;sketch=1;curveFitting=1;jiggle=2;endArrow=none;endFill=0;" edge="1" parent="1" source="pGmbN54esB-qeb39x4uP-57">
          <mxGeometry relative="1" as="geometry">
            <mxPoint x="560" y="1269.9999999999998" as="targetPoint" />
          </mxGeometry>
        </mxCell>
        <mxCell id="pGmbN54esB-qeb39x4uP-57" value="Only the assignee can make this ticket transition. All blocked tickets should be reviewed by the triage once they have been in blocked for &amp;gt; 2 days.&amp;nbsp;" style="shape=note;whiteSpace=wrap;html=1;backgroundOutline=1;darkOpacity=0.05;sketch=1;curveFitting=1;jiggle=2;size=9;align=left;verticalAlign=top;" vertex="1" parent="1">
          <mxGeometry x="475" y="1320" width="170" height="90" as="geometry" />
        </mxCell>
        <mxCell id="pGmbN54esB-qeb39x4uP-60" style="edgeStyle=orthogonalEdgeStyle;orthogonalLoop=1;jettySize=auto;html=1;entryX=0.75;entryY=0;entryDx=0;entryDy=0;exitX=0.5;exitY=0;exitDx=0;exitDy=0;exitPerimeter=0;sketch=1;curveFitting=1;jiggle=2;rounded=1;fillColor=#f8cecc;strokeColor=#b85450;" edge="1" parent="1" source="pGmbN54esB-qeb39x4uP-59" target="pGmbN54esB-qeb39x4uP-49">
          <mxGeometry relative="1" as="geometry">
            <Array as="points">
              <mxPoint x="475" y="1130" />
              <mxPoint x="343" y="1130" />
            </Array>
          </mxGeometry>
        </mxCell>
        <mxCell id="pGmbN54esB-qeb39x4uP-59" value="When a ticket is placed in TODO, it immediately appears in the assigned teams board ready for their standup and the triage attendee to describe to the team!" style="shape=note;whiteSpace=wrap;html=1;backgroundOutline=1;darkOpacity=0.05;sketch=1;curveFitting=1;jiggle=2;size=9;align=left;verticalAlign=top;" vertex="1" parent="1">
          <mxGeometry x="390" y="1140" width="170" height="100" as="geometry" />
        </mxCell>
        <mxCell id="pGmbN54esB-qeb39x4uP-61" value="" style="strokeWidth=1;html=1;shape=mxgraph.flowchart.annotation_2;align=left;labelPosition=right;pointerEvents=1;rotation=-90;sketch=1;curveFitting=1;jiggle=2;fillColor=#f8cecc;strokeColor=#b85450;" vertex="1" parent="1">
          <mxGeometry x="450" y="1070" width="50" height="780" as="geometry" />
        </mxCell>
        <mxCell id="pGmbN54esB-qeb39x4uP-62" value="During every transition, a comment &lt;b&gt;MUST &lt;/b&gt;be added to prevent the need for &quot;management glue&quot;!&amp;nbsp;" style="shape=note;whiteSpace=wrap;html=1;backgroundOutline=1;darkOpacity=0.05;sketch=1;curveFitting=1;jiggle=2;size=9;align=left;verticalAlign=top;" vertex="1" parent="1">
          <mxGeometry x="390" y="1487" width="170" height="73" as="geometry" />
        </mxCell>
        <mxCell id="pGmbN54esB-qeb39x4uP-63" value="Comments &lt;b&gt;MUST&lt;/b&gt; be added daily to prevent people from having to chase for a status update. It also makes chasing/hassling inappropriate, which is a big win for the assignee!&amp;nbsp; &amp;nbsp;&amp;nbsp;" style="shape=note;whiteSpace=wrap;html=1;backgroundOutline=1;darkOpacity=0.05;sketch=1;curveFitting=1;jiggle=2;size=9;align=left;verticalAlign=top;" vertex="1" parent="1">
          <mxGeometry x="535" y="940" width="205" height="80" as="geometry" />
        </mxCell>
        <mxCell id="pGmbN54esB-qeb39x4uP-64" value="" style="strokeWidth=1;html=1;shape=mxgraph.flowchart.annotation_2;align=left;labelPosition=right;pointerEvents=1;rotation=90;sketch=1;curveFitting=1;jiggle=2;fillColor=#f8cecc;strokeColor=#b85450;" vertex="1" parent="1">
          <mxGeometry x="556.25" y="1029" width="157.5" height="140" as="geometry" />
        </mxCell>
        <mxCell id="pGmbN54esB-qeb39x4uP-264" style="edgeStyle=orthogonalEdgeStyle;rounded=0;orthogonalLoop=1;jettySize=auto;html=1;entryX=0.5;entryY=0;entryDx=0;entryDy=0;strokeWidth=1;sketch=1;curveFitting=1;jiggle=2;" edge="1" parent="1" source="pGmbN54esB-qeb39x4uP-142" target="pGmbN54esB-qeb39x4uP-180">
          <mxGeometry relative="1" as="geometry">
            <mxPoint x="2883" y="475" as="targetPoint" />
            <Array as="points">
              <mxPoint x="2883" y="680" />
              <mxPoint x="2153" y="680" />
            </Array>
          </mxGeometry>
        </mxCell>
        <mxCell id="pGmbN54esB-qeb39x4uP-269" style="edgeStyle=orthogonalEdgeStyle;rounded=0;orthogonalLoop=1;jettySize=auto;html=1;entryX=0.5;entryY=0;entryDx=0;entryDy=0;strokeWidth=1;sketch=1;curveFitting=1;jiggle=2;" edge="1" parent="1" source="pGmbN54esB-qeb39x4uP-142" target="pGmbN54esB-qeb39x4uP-218">
          <mxGeometry relative="1" as="geometry" />
        </mxCell>
        <mxCell id="pGmbN54esB-qeb39x4uP-270" style="edgeStyle=orthogonalEdgeStyle;rounded=0;orthogonalLoop=1;jettySize=auto;html=1;entryX=0.5;entryY=0;entryDx=0;entryDy=0;strokeWidth=1;sketch=1;curveFitting=1;jiggle=2;" edge="1" parent="1" source="pGmbN54esB-qeb39x4uP-142" target="pGmbN54esB-qeb39x4uP-230">
          <mxGeometry relative="1" as="geometry">
            <Array as="points">
              <mxPoint x="2883" y="680" />
              <mxPoint x="3613" y="680" />
            </Array>
          </mxGeometry>
        </mxCell>
        <mxCell id="pGmbN54esB-qeb39x4uP-142" value="" style="rounded=1;whiteSpace=wrap;html=1;arcSize=3;sketch=1;curveFitting=1;jiggle=2;" vertex="1" parent="1">
          <mxGeometry x="2459" y="180" width="850" height="420" as="geometry" />
        </mxCell>
        <mxCell id="pGmbN54esB-qeb39x4uP-143" value="Triage Review" style="rounded=1;whiteSpace=wrap;html=1;sketch=1;curveFitting=1;jiggle=2;fillColor=#f5f5f5;fontColor=#333333;strokeColor=#666666;verticalAlign=top;fontStyle=1" vertex="1" parent="1">
          <mxGeometry x="2499" y="250" width="120" height="340" as="geometry" />
        </mxCell>
        <mxCell id="pGmbN54esB-qeb39x4uP-144" value="TODO" style="rounded=1;whiteSpace=wrap;html=1;sketch=1;curveFitting=1;jiggle=2;fillColor=#f5f5f5;fontColor=#333333;strokeColor=#666666;verticalAlign=top;fontStyle=1" vertex="1" parent="1">
          <mxGeometry x="2659" y="250" width="120" height="340" as="geometry" />
        </mxCell>
        <mxCell id="pGmbN54esB-qeb39x4uP-145" value="In Progress" style="rounded=1;whiteSpace=wrap;html=1;sketch=1;curveFitting=1;jiggle=2;fillColor=#f5f5f5;fontColor=#333333;strokeColor=#666666;verticalAlign=top;fontStyle=1" vertex="1" parent="1">
          <mxGeometry x="2979" y="250" width="120" height="340" as="geometry" />
        </mxCell>
        <mxCell id="pGmbN54esB-qeb39x4uP-146" value="Done" style="rounded=1;whiteSpace=wrap;html=1;sketch=1;curveFitting=1;jiggle=2;fillColor=#f5f5f5;fontColor=#333333;strokeColor=#666666;verticalAlign=top;fontStyle=1" vertex="1" parent="1">
          <mxGeometry x="3139" y="250" width="120" height="340" as="geometry" />
        </mxCell>
        <mxCell id="pGmbN54esB-qeb39x4uP-147" value="Blocked" style="rounded=1;whiteSpace=wrap;html=1;sketch=1;curveFitting=1;jiggle=2;fillColor=#f5f5f5;fontColor=#333333;strokeColor=#666666;verticalAlign=top;fontStyle=1" vertex="1" parent="1">
          <mxGeometry x="2819" y="250" width="120" height="340" as="geometry" />
        </mxCell>
        <mxCell id="pGmbN54esB-qeb39x4uP-148" value="DOSUP-112" style="rounded=1;whiteSpace=wrap;html=1;sketch=1;curveFitting=1;jiggle=2;fillColor=#f5f5f5;fontColor=#333333;strokeColor=#666666;verticalAlign=top;fontStyle=0;align=left;" vertex="1" parent="1">
          <mxGeometry x="2504" y="290" width="110" height="40" as="geometry" />
        </mxCell>
        <mxCell id="pGmbN54esB-qeb39x4uP-149" value="DOSUP-113" style="rounded=1;whiteSpace=wrap;html=1;sketch=1;curveFitting=1;jiggle=2;fillColor=#f5f5f5;fontColor=#333333;strokeColor=#666666;verticalAlign=top;fontStyle=0;align=left;" vertex="1" parent="1">
          <mxGeometry x="2504" y="340" width="110" height="40" as="geometry" />
        </mxCell>
        <mxCell id="pGmbN54esB-qeb39x4uP-150" value="DOSUP-115&lt;br&gt;&lt;i style=&quot;border-color: var(--border-color);&quot;&gt;triangle&lt;/i&gt;" style="rounded=1;whiteSpace=wrap;html=1;sketch=1;curveFitting=1;jiggle=2;fillColor=#e1d5e7;strokeColor=#9673a6;verticalAlign=top;fontStyle=0;align=left;" vertex="1" parent="1">
          <mxGeometry x="2664" y="290" width="110" height="40" as="geometry" />
        </mxCell>
        <mxCell id="pGmbN54esB-qeb39x4uP-151" value="DOSUP-116&lt;br&gt;&lt;i style=&quot;border-color: var(--border-color);&quot;&gt;circle&lt;/i&gt;" style="rounded=1;whiteSpace=wrap;html=1;sketch=1;curveFitting=1;jiggle=2;fillColor=#d5e8d4;strokeColor=#82b366;verticalAlign=top;fontStyle=0;align=left;" vertex="1" parent="1">
          <mxGeometry x="2664" y="340" width="110" height="40" as="geometry" />
        </mxCell>
        <mxCell id="pGmbN54esB-qeb39x4uP-152" value="DOSUP-120&lt;br&gt;&lt;i&gt;square&lt;/i&gt;" style="rounded=1;whiteSpace=wrap;html=1;sketch=1;curveFitting=1;jiggle=2;fillColor=#fff2cc;strokeColor=#d6b656;verticalAlign=top;fontStyle=0;align=left;" vertex="1" parent="1">
          <mxGeometry x="2984" y="440" width="110" height="40" as="geometry" />
        </mxCell>
        <mxCell id="pGmbN54esB-qeb39x4uP-153" value="DOSUP-122&lt;br&gt;&lt;i&gt;square&lt;/i&gt;" style="rounded=1;whiteSpace=wrap;html=1;sketch=1;curveFitting=1;jiggle=2;fillColor=#fff2cc;strokeColor=#d6b656;verticalAlign=top;fontStyle=0;align=left;" vertex="1" parent="1">
          <mxGeometry x="2984" y="490" width="110" height="40" as="geometry" />
        </mxCell>
        <mxCell id="pGmbN54esB-qeb39x4uP-154" value="DOSUP-103&lt;br&gt;&lt;i&gt;circle&lt;/i&gt;" style="rounded=1;whiteSpace=wrap;html=1;sketch=1;curveFitting=1;jiggle=2;fillColor=#d5e8d4;strokeColor=#82b366;verticalAlign=top;fontStyle=0;align=left;" vertex="1" parent="1">
          <mxGeometry x="2984" y="290" width="110" height="40" as="geometry" />
        </mxCell>
        <mxCell id="pGmbN54esB-qeb39x4uP-155" value="DOSUP-106&lt;br&gt;&lt;i&gt;triangle&lt;/i&gt;" style="rounded=1;whiteSpace=wrap;html=1;sketch=1;curveFitting=1;jiggle=2;fillColor=#e1d5e7;strokeColor=#9673a6;verticalAlign=top;fontStyle=0;align=left;" vertex="1" parent="1">
          <mxGeometry x="2984" y="340" width="110" height="40" as="geometry" />
        </mxCell>
        <mxCell id="pGmbN54esB-qeb39x4uP-156" value="DOSUP-110&lt;br&gt;&lt;i style=&quot;border-color: var(--border-color);&quot;&gt;circle&lt;/i&gt;" style="rounded=1;whiteSpace=wrap;html=1;sketch=1;curveFitting=1;jiggle=2;fillColor=#d5e8d4;strokeColor=#82b366;verticalAlign=top;fontStyle=0;align=left;" vertex="1" parent="1">
          <mxGeometry x="2984" y="390" width="110" height="40" as="geometry" />
        </mxCell>
        <mxCell id="pGmbN54esB-qeb39x4uP-157" value="DOSUP-103&lt;br&gt;&lt;i&gt;square&lt;/i&gt;" style="rounded=1;whiteSpace=wrap;html=1;sketch=1;curveFitting=1;jiggle=2;fillColor=#fff2cc;strokeColor=#d6b656;verticalAlign=top;fontStyle=0;align=left;" vertex="1" parent="1">
          <mxGeometry x="3144" y="290" width="110" height="40" as="geometry" />
        </mxCell>
        <mxCell id="pGmbN54esB-qeb39x4uP-158" value="DOSUP-106&lt;br&gt;&lt;i style=&quot;border-color: var(--border-color);&quot;&gt;circle&lt;/i&gt;" style="rounded=1;whiteSpace=wrap;html=1;sketch=1;curveFitting=1;jiggle=2;fillColor=#d5e8d4;strokeColor=#82b366;verticalAlign=top;fontStyle=0;align=left;" vertex="1" parent="1">
          <mxGeometry x="3144" y="340" width="110" height="40" as="geometry" />
        </mxCell>
        <mxCell id="pGmbN54esB-qeb39x4uP-159" value="Quagmira Â©" style="rounded=1;whiteSpace=wrap;html=1;arcSize=3;sketch=1;curveFitting=1;jiggle=2;align=center;fillColor=#dae8fc;strokeColor=#6c8ebf;" vertex="1" parent="1">
          <mxGeometry x="2469" y="190" width="90" height="40" as="geometry" />
        </mxCell>
        <mxCell id="pGmbN54esB-qeb39x4uP-160" value="&lt;font style=&quot;font-size: 15px;&quot;&gt;Support Board&lt;/font&gt;" style="rounded=1;whiteSpace=wrap;html=1;arcSize=3;sketch=1;curveFitting=1;jiggle=2;align=center;fillColor=#dae8fc;strokeColor=#6c8ebf;" vertex="1" parent="1">
          <mxGeometry x="2559" y="190" width="730" height="40" as="geometry" />
        </mxCell>
        <mxCell id="pGmbN54esB-qeb39x4uP-180" value="" style="rounded=1;whiteSpace=wrap;html=1;arcSize=3;sketch=1;curveFitting=1;jiggle=2;" vertex="1" parent="1">
          <mxGeometry x="1808" y="760" width="690" height="420" as="geometry" />
        </mxCell>
        <mxCell id="pGmbN54esB-qeb39x4uP-182" value="TODO" style="rounded=1;whiteSpace=wrap;html=1;sketch=1;curveFitting=1;jiggle=2;fillColor=#f5f5f5;fontColor=#333333;strokeColor=#666666;verticalAlign=top;fontStyle=1" vertex="1" parent="1">
          <mxGeometry x="1848" y="830" width="120" height="340" as="geometry" />
        </mxCell>
        <mxCell id="pGmbN54esB-qeb39x4uP-183" value="In Progress" style="rounded=1;whiteSpace=wrap;html=1;sketch=1;curveFitting=1;jiggle=2;fillColor=#f5f5f5;fontColor=#333333;strokeColor=#666666;verticalAlign=top;fontStyle=1" vertex="1" parent="1">
          <mxGeometry x="2168" y="830" width="120" height="340" as="geometry" />
        </mxCell>
        <mxCell id="pGmbN54esB-qeb39x4uP-184" value="Done" style="rounded=1;whiteSpace=wrap;html=1;sketch=1;curveFitting=1;jiggle=2;fillColor=#f5f5f5;fontColor=#333333;strokeColor=#666666;verticalAlign=top;fontStyle=1" vertex="1" parent="1">
          <mxGeometry x="2328" y="830" width="120" height="340" as="geometry" />
        </mxCell>
        <mxCell id="pGmbN54esB-qeb39x4uP-185" value="Blocked" style="rounded=1;whiteSpace=wrap;html=1;sketch=1;curveFitting=1;jiggle=2;fillColor=#f5f5f5;fontColor=#333333;strokeColor=#666666;verticalAlign=top;fontStyle=1" vertex="1" parent="1">
          <mxGeometry x="2008" y="830" width="120" height="340" as="geometry" />
        </mxCell>
        <mxCell id="pGmbN54esB-qeb39x4uP-192" value="SQ-204" style="rounded=1;whiteSpace=wrap;html=1;sketch=1;curveFitting=1;jiggle=2;fillColor=#f5f5f5;fontColor=#333333;strokeColor=#666666;verticalAlign=top;fontStyle=0;align=left;" vertex="1" parent="1">
          <mxGeometry x="1853" y="860" width="110" height="40" as="geometry" />
        </mxCell>
        <mxCell id="pGmbN54esB-qeb39x4uP-195" value="DOSUP-103&lt;br&gt;&lt;i style=&quot;border-color: var(--border-color);&quot;&gt;square&lt;/i&gt;" style="rounded=1;whiteSpace=wrap;html=1;sketch=1;curveFitting=1;jiggle=2;fillColor=#fff2cc;strokeColor=#d6b656;verticalAlign=top;fontStyle=0;align=left;" vertex="1" parent="1">
          <mxGeometry x="2333" y="1110" width="110" height="40" as="geometry" />
        </mxCell>
        <mxCell id="pGmbN54esB-qeb39x4uP-197" value="Quagmira Â©" style="rounded=1;whiteSpace=wrap;html=1;arcSize=3;sketch=1;curveFitting=1;jiggle=2;align=center;fillColor=#fff2cc;strokeColor=#d6b656;" vertex="1" parent="1">
          <mxGeometry x="1828" y="770" width="90" height="40" as="geometry" />
        </mxCell>
        <mxCell id="pGmbN54esB-qeb39x4uP-198" value="&lt;font style=&quot;font-size: 15px;&quot;&gt;Team Square Board&lt;/font&gt;" style="rounded=1;whiteSpace=wrap;html=1;arcSize=3;sketch=1;curveFitting=1;jiggle=2;align=center;fillColor=#fff2cc;strokeColor=#d6b656;" vertex="1" parent="1">
          <mxGeometry x="1918" y="770" width="560" height="40" as="geometry" />
        </mxCell>
        <mxCell id="pGmbN54esB-qeb39x4uP-218" value="" style="rounded=1;whiteSpace=wrap;html=1;arcSize=3;sketch=1;curveFitting=1;jiggle=2;" vertex="1" parent="1">
          <mxGeometry x="2539" y="760" width="690" height="420" as="geometry" />
        </mxCell>
        <mxCell id="pGmbN54esB-qeb39x4uP-219" value="TODO" style="rounded=1;whiteSpace=wrap;html=1;sketch=1;curveFitting=1;jiggle=2;fillColor=#f5f5f5;fontColor=#333333;strokeColor=#666666;verticalAlign=top;fontStyle=1" vertex="1" parent="1">
          <mxGeometry x="2579" y="830" width="120" height="340" as="geometry" />
        </mxCell>
        <mxCell id="pGmbN54esB-qeb39x4uP-220" value="In Progress" style="rounded=1;whiteSpace=wrap;html=1;sketch=1;curveFitting=1;jiggle=2;fillColor=#f5f5f5;fontColor=#333333;strokeColor=#666666;verticalAlign=top;fontStyle=1" vertex="1" parent="1">
          <mxGeometry x="2899" y="830" width="120" height="340" as="geometry" />
        </mxCell>
        <mxCell id="pGmbN54esB-qeb39x4uP-221" value="Done" style="rounded=1;whiteSpace=wrap;html=1;sketch=1;curveFitting=1;jiggle=2;fillColor=#f5f5f5;fontColor=#333333;strokeColor=#666666;verticalAlign=top;fontStyle=1" vertex="1" parent="1">
          <mxGeometry x="3059" y="830" width="120" height="340" as="geometry" />
        </mxCell>
        <mxCell id="pGmbN54esB-qeb39x4uP-222" value="Blocked" style="rounded=1;whiteSpace=wrap;html=1;sketch=1;curveFitting=1;jiggle=2;fillColor=#f5f5f5;fontColor=#333333;strokeColor=#666666;verticalAlign=top;fontStyle=1" vertex="1" parent="1">
          <mxGeometry x="2739" y="830" width="120" height="340" as="geometry" />
        </mxCell>
        <mxCell id="pGmbN54esB-qeb39x4uP-223" value="TRI-72" style="rounded=1;whiteSpace=wrap;html=1;sketch=1;curveFitting=1;jiggle=2;fillColor=#f5f5f5;fontColor=#333333;strokeColor=#666666;verticalAlign=top;fontStyle=0;align=left;" vertex="1" parent="1">
          <mxGeometry x="2904" y="870" width="110" height="40" as="geometry" />
        </mxCell>
        <mxCell id="pGmbN54esB-qeb39x4uP-225" value="DOSUP-106&lt;br&gt;&lt;i style=&quot;border-color: var(--border-color);&quot;&gt;triangle&lt;/i&gt;" style="rounded=1;whiteSpace=wrap;html=1;sketch=1;curveFitting=1;jiggle=2;fillColor=#e1d5e7;strokeColor=#9673a6;verticalAlign=top;fontStyle=0;align=left;" vertex="1" parent="1">
          <mxGeometry x="2904" y="965" width="110" height="40" as="geometry" />
        </mxCell>
        <mxCell id="pGmbN54esB-qeb39x4uP-226" value="TRI-69" style="rounded=1;whiteSpace=wrap;html=1;sketch=1;curveFitting=1;jiggle=2;fillColor=#f5f5f5;fontColor=#333333;strokeColor=#666666;verticalAlign=top;fontStyle=0;align=left;" vertex="1" parent="1">
          <mxGeometry x="3064" y="870" width="110" height="40" as="geometry" />
        </mxCell>
        <mxCell id="pGmbN54esB-qeb39x4uP-227" value="TRI-55" style="rounded=1;whiteSpace=wrap;html=1;sketch=1;curveFitting=1;jiggle=2;fillColor=#f5f5f5;fontColor=#333333;strokeColor=#666666;verticalAlign=top;fontStyle=0;align=left;" vertex="1" parent="1">
          <mxGeometry x="3064" y="920" width="110" height="40" as="geometry" />
        </mxCell>
        <mxCell id="pGmbN54esB-qeb39x4uP-228" value="Quagmira Â©" style="rounded=1;whiteSpace=wrap;html=1;arcSize=3;sketch=1;curveFitting=1;jiggle=2;align=center;fillColor=#e1d5e7;strokeColor=#9673a6;" vertex="1" parent="1">
          <mxGeometry x="2559" y="770" width="90" height="40" as="geometry" />
        </mxCell>
        <mxCell id="pGmbN54esB-qeb39x4uP-229" value="&lt;font style=&quot;font-size: 15px;&quot;&gt;Team Triangle Board&lt;/font&gt;" style="rounded=1;whiteSpace=wrap;html=1;arcSize=3;sketch=1;curveFitting=1;jiggle=2;align=center;fillColor=#e1d5e7;strokeColor=#9673a6;" vertex="1" parent="1">
          <mxGeometry x="2649" y="770" width="560" height="40" as="geometry" />
        </mxCell>
        <mxCell id="pGmbN54esB-qeb39x4uP-230" value="" style="rounded=1;whiteSpace=wrap;html=1;arcSize=3;sketch=1;curveFitting=1;jiggle=2;" vertex="1" parent="1">
          <mxGeometry x="3268" y="760" width="690" height="420" as="geometry" />
        </mxCell>
        <mxCell id="pGmbN54esB-qeb39x4uP-231" value="TODO" style="rounded=1;whiteSpace=wrap;html=1;sketch=1;curveFitting=1;jiggle=2;fillColor=#f5f5f5;fontColor=#333333;strokeColor=#666666;verticalAlign=top;fontStyle=1" vertex="1" parent="1">
          <mxGeometry x="3308" y="830" width="120" height="340" as="geometry" />
        </mxCell>
        <mxCell id="pGmbN54esB-qeb39x4uP-232" value="In Progress" style="rounded=1;whiteSpace=wrap;html=1;sketch=1;curveFitting=1;jiggle=2;fillColor=#f5f5f5;fontColor=#333333;strokeColor=#666666;verticalAlign=top;fontStyle=1" vertex="1" parent="1">
          <mxGeometry x="3628" y="830" width="120" height="340" as="geometry" />
        </mxCell>
        <mxCell id="pGmbN54esB-qeb39x4uP-233" value="Done" style="rounded=1;whiteSpace=wrap;html=1;sketch=1;curveFitting=1;jiggle=2;fillColor=#f5f5f5;fontColor=#333333;strokeColor=#666666;verticalAlign=top;fontStyle=1" vertex="1" parent="1">
          <mxGeometry x="3788" y="830" width="120" height="340" as="geometry" />
        </mxCell>
        <mxCell id="pGmbN54esB-qeb39x4uP-234" value="Blocked" style="rounded=1;whiteSpace=wrap;html=1;sketch=1;curveFitting=1;jiggle=2;fillColor=#f5f5f5;fontColor=#333333;strokeColor=#666666;verticalAlign=top;fontStyle=1" vertex="1" parent="1">
          <mxGeometry x="3468" y="830" width="120" height="340" as="geometry" />
        </mxCell>
        <mxCell id="pGmbN54esB-qeb39x4uP-235" value="DOSUP-103&lt;br&gt;&lt;i style=&quot;border-color: var(--border-color);&quot;&gt;circle&lt;/i&gt;" style="rounded=1;whiteSpace=wrap;html=1;sketch=1;curveFitting=1;jiggle=2;fillColor=#d5e8d4;strokeColor=#82b366;verticalAlign=top;fontStyle=0;align=left;" vertex="1" parent="1">
          <mxGeometry x="3633" y="870" width="110" height="40" as="geometry" />
        </mxCell>
        <mxCell id="pGmbN54esB-qeb39x4uP-236" value="CIRC-2" style="rounded=1;whiteSpace=wrap;html=1;sketch=1;curveFitting=1;jiggle=2;fillColor=#f5f5f5;fontColor=#333333;strokeColor=#666666;verticalAlign=top;fontStyle=0;align=left;" vertex="1" parent="1">
          <mxGeometry x="3313" y="865" width="110" height="40" as="geometry" />
        </mxCell>
        <mxCell id="pGmbN54esB-qeb39x4uP-237" value="DOSUP-110&lt;br&gt;&lt;i style=&quot;border-color: var(--border-color);&quot;&gt;circle&lt;/i&gt;" style="rounded=1;whiteSpace=wrap;html=1;sketch=1;curveFitting=1;jiggle=2;fillColor=#d5e8d4;strokeColor=#82b366;verticalAlign=top;fontStyle=0;align=left;" vertex="1" parent="1">
          <mxGeometry x="3633" y="920" width="110" height="40" as="geometry" />
        </mxCell>
        <mxCell id="pGmbN54esB-qeb39x4uP-239" value="DOSUP-106&lt;br&gt;&lt;i style=&quot;border-color: var(--border-color);&quot;&gt;circle&lt;/i&gt;" style="rounded=1;whiteSpace=wrap;html=1;sketch=1;curveFitting=1;jiggle=2;fillColor=#d5e8d4;strokeColor=#82b366;verticalAlign=top;fontStyle=0;align=left;" vertex="1" parent="1">
          <mxGeometry x="3793" y="920" width="110" height="40" as="geometry" />
        </mxCell>
        <mxCell id="pGmbN54esB-qeb39x4uP-240" value="Quagmira Â©" style="rounded=1;whiteSpace=wrap;html=1;arcSize=3;sketch=1;curveFitting=1;jiggle=2;align=center;fillColor=#d5e8d4;strokeColor=#82b366;" vertex="1" parent="1">
          <mxGeometry x="3288" y="770" width="90" height="40" as="geometry" />
        </mxCell>
        <mxCell id="pGmbN54esB-qeb39x4uP-241" value="&lt;font style=&quot;font-size: 15px;&quot;&gt;Team Circle Board&lt;/font&gt;" style="rounded=1;whiteSpace=wrap;html=1;arcSize=3;sketch=1;curveFitting=1;jiggle=2;align=center;fillColor=#d5e8d4;strokeColor=#82b366;" vertex="1" parent="1">
          <mxGeometry x="3378" y="770" width="560" height="40" as="geometry" />
        </mxCell>
        <mxCell id="pGmbN54esB-qeb39x4uP-242" value="DOSUP-120&lt;br&gt;&lt;i style=&quot;border-color: var(--border-color);&quot;&gt;square&lt;/i&gt;" style="rounded=1;whiteSpace=wrap;html=1;sketch=1;curveFitting=1;jiggle=2;fillColor=#fff2cc;strokeColor=#d6b656;verticalAlign=top;fontStyle=0;align=left;" vertex="1" parent="1">
          <mxGeometry x="2174" y="860" width="110" height="40" as="geometry" />
        </mxCell>
        <mxCell id="pGmbN54esB-qeb39x4uP-243" value="DOSUP-122&lt;br&gt;&lt;i style=&quot;border-color: var(--border-color);&quot;&gt;square&lt;/i&gt;" style="rounded=1;whiteSpace=wrap;html=1;sketch=1;curveFitting=1;jiggle=2;fillColor=#fff2cc;strokeColor=#d6b656;verticalAlign=top;fontStyle=0;align=left;" vertex="1" parent="1">
          <mxGeometry x="2174" y="910" width="110" height="40" as="geometry" />
        </mxCell>
        <mxCell id="pGmbN54esB-qeb39x4uP-244" value="SQ-210" style="rounded=1;whiteSpace=wrap;html=1;sketch=1;curveFitting=1;jiggle=2;fillColor=#f5f5f5;fontColor=#333333;strokeColor=#666666;verticalAlign=top;fontStyle=0;align=left;" vertex="1" parent="1">
          <mxGeometry x="1853" y="910" width="110" height="40" as="geometry" />
        </mxCell>
        <mxCell id="pGmbN54esB-qeb39x4uP-245" value="SQ-211" style="rounded=1;whiteSpace=wrap;html=1;sketch=1;curveFitting=1;jiggle=2;fillColor=#f5f5f5;fontColor=#333333;strokeColor=#666666;verticalAlign=top;fontStyle=0;align=left;" vertex="1" parent="1">
          <mxGeometry x="1853" y="960" width="110" height="40" as="geometry" />
        </mxCell>
        <mxCell id="pGmbN54esB-qeb39x4uP-246" value="SQ-220" style="rounded=1;whiteSpace=wrap;html=1;sketch=1;curveFitting=1;jiggle=2;fillColor=#f5f5f5;fontColor=#333333;strokeColor=#666666;verticalAlign=top;fontStyle=0;align=left;" vertex="1" parent="1">
          <mxGeometry x="1853" y="1010" width="110" height="40" as="geometry" />
        </mxCell>
        <mxCell id="pGmbN54esB-qeb39x4uP-247" value="SQ-100" style="rounded=1;whiteSpace=wrap;html=1;sketch=1;curveFitting=1;jiggle=2;fillColor=#f5f5f5;fontColor=#333333;strokeColor=#666666;verticalAlign=top;fontStyle=0;align=left;" vertex="1" parent="1">
          <mxGeometry x="1853" y="1060" width="110" height="40" as="geometry" />
        </mxCell>
        <mxCell id="pGmbN54esB-qeb39x4uP-248" value="SQ-300" style="rounded=1;whiteSpace=wrap;html=1;sketch=1;curveFitting=1;jiggle=2;fillColor=#f5f5f5;fontColor=#333333;strokeColor=#666666;verticalAlign=top;fontStyle=0;align=left;" vertex="1" parent="1">
          <mxGeometry x="1853" y="1110" width="110" height="40" as="geometry" />
        </mxCell>
        <mxCell id="pGmbN54esB-qeb39x4uP-255" value="SQ-211" style="rounded=1;whiteSpace=wrap;html=1;sketch=1;curveFitting=1;jiggle=2;fillColor=#f5f5f5;fontColor=#333333;strokeColor=#666666;verticalAlign=top;fontStyle=0;align=left;" vertex="1" parent="1">
          <mxGeometry x="2173" y="960" width="110" height="40" as="geometry" />
        </mxCell>
        <mxCell id="pGmbN54esB-qeb39x4uP-256" value="SQ-220" style="rounded=1;whiteSpace=wrap;html=1;sketch=1;curveFitting=1;jiggle=2;fillColor=#f5f5f5;fontColor=#333333;strokeColor=#666666;verticalAlign=top;fontStyle=0;align=left;" vertex="1" parent="1">
          <mxGeometry x="2173" y="1010" width="110" height="40" as="geometry" />
        </mxCell>
        <mxCell id="pGmbN54esB-qeb39x4uP-257" value="SQ-100" style="rounded=1;whiteSpace=wrap;html=1;sketch=1;curveFitting=1;jiggle=2;fillColor=#f5f5f5;fontColor=#333333;strokeColor=#666666;verticalAlign=top;fontStyle=0;align=left;" vertex="1" parent="1">
          <mxGeometry x="2173" y="1060" width="110" height="40" as="geometry" />
        </mxCell>
        <mxCell id="pGmbN54esB-qeb39x4uP-258" value="SQ-405" style="rounded=1;whiteSpace=wrap;html=1;sketch=1;curveFitting=1;jiggle=2;fillColor=#f5f5f5;fontColor=#333333;strokeColor=#666666;verticalAlign=top;fontStyle=0;align=left;" vertex="1" parent="1">
          <mxGeometry x="2333" y="860" width="110" height="40" as="geometry" />
        </mxCell>
        <mxCell id="pGmbN54esB-qeb39x4uP-259" value="SQ-400" style="rounded=1;whiteSpace=wrap;html=1;sketch=1;curveFitting=1;jiggle=2;fillColor=#f5f5f5;fontColor=#333333;strokeColor=#666666;verticalAlign=top;fontStyle=0;align=left;" vertex="1" parent="1">
          <mxGeometry x="2333" y="910" width="110" height="40" as="geometry" />
        </mxCell>
        <mxCell id="pGmbN54esB-qeb39x4uP-260" value="SQ-587" style="rounded=1;whiteSpace=wrap;html=1;sketch=1;curveFitting=1;jiggle=2;fillColor=#f5f5f5;fontColor=#333333;strokeColor=#666666;verticalAlign=top;fontStyle=0;align=left;" vertex="1" parent="1">
          <mxGeometry x="2333" y="960" width="110" height="40" as="geometry" />
        </mxCell>
        <mxCell id="pGmbN54esB-qeb39x4uP-261" value="SQ-150" style="rounded=1;whiteSpace=wrap;html=1;sketch=1;curveFitting=1;jiggle=2;fillColor=#f5f5f5;fontColor=#333333;strokeColor=#666666;verticalAlign=top;fontStyle=0;align=left;" vertex="1" parent="1">
          <mxGeometry x="2333" y="1060" width="110" height="40" as="geometry" />
        </mxCell>
        <mxCell id="pGmbN54esB-qeb39x4uP-262" value="SQ-251" style="rounded=1;whiteSpace=wrap;html=1;sketch=1;curveFitting=1;jiggle=2;fillColor=#f5f5f5;fontColor=#333333;strokeColor=#666666;verticalAlign=top;fontStyle=0;align=left;" vertex="1" parent="1">
          <mxGeometry x="2333" y="1010" width="110" height="40" as="geometry" />
        </mxCell>
        <mxCell id="pGmbN54esB-qeb39x4uP-271" value="TRI-45" style="rounded=1;whiteSpace=wrap;html=1;sketch=1;curveFitting=1;jiggle=2;fillColor=#f5f5f5;fontColor=#333333;strokeColor=#666666;verticalAlign=top;fontStyle=0;align=left;" vertex="1" parent="1">
          <mxGeometry x="2584" y="855" width="110" height="40" as="geometry" />
        </mxCell>
        <mxCell id="pGmbN54esB-qeb39x4uP-272" value="TRI-33" style="rounded=1;whiteSpace=wrap;html=1;sketch=1;curveFitting=1;jiggle=2;fillColor=#f5f5f5;fontColor=#333333;strokeColor=#666666;verticalAlign=top;fontStyle=0;align=left;" vertex="1" parent="1">
          <mxGeometry x="2584" y="905" width="110" height="40" as="geometry" />
        </mxCell>
        <mxCell id="pGmbN54esB-qeb39x4uP-273" value="DOSUP-115&lt;br&gt;&lt;i style=&quot;border-color: var(--border-color);&quot;&gt;triangle&lt;/i&gt;" style="rounded=1;whiteSpace=wrap;html=1;sketch=1;curveFitting=1;jiggle=2;fillColor=#e1d5e7;strokeColor=#9673a6;verticalAlign=top;fontStyle=0;align=left;" vertex="1" parent="1">
          <mxGeometry x="2584" y="955" width="110" height="40" as="geometry" />
        </mxCell>
        <mxCell id="pGmbN54esB-qeb39x4uP-274" value="TRI-46" style="rounded=1;whiteSpace=wrap;html=1;sketch=1;curveFitting=1;jiggle=2;fillColor=#f5f5f5;fontColor=#333333;strokeColor=#666666;verticalAlign=top;fontStyle=0;align=left;" vertex="1" parent="1">
          <mxGeometry x="2584" y="1005" width="110" height="40" as="geometry" />
        </mxCell>
        <mxCell id="pGmbN54esB-qeb39x4uP-275" value="TRI-22" style="rounded=1;whiteSpace=wrap;html=1;sketch=1;curveFitting=1;jiggle=2;fillColor=#f5f5f5;fontColor=#333333;strokeColor=#666666;verticalAlign=top;fontStyle=0;align=left;" vertex="1" parent="1">
          <mxGeometry x="2584" y="1055" width="110" height="40" as="geometry" />
        </mxCell>
        <mxCell id="pGmbN54esB-qeb39x4uP-276" value="TRI-15" style="rounded=1;whiteSpace=wrap;html=1;sketch=1;curveFitting=1;jiggle=2;fillColor=#f5f5f5;fontColor=#333333;strokeColor=#666666;verticalAlign=top;fontStyle=0;align=left;" vertex="1" parent="1">
          <mxGeometry x="2584" y="1105" width="110" height="40" as="geometry" />
        </mxCell>
        <mxCell id="pGmbN54esB-qeb39x4uP-277" value="TRI-90" style="rounded=1;whiteSpace=wrap;html=1;sketch=1;curveFitting=1;jiggle=2;fillColor=#f5f5f5;fontColor=#333333;strokeColor=#666666;verticalAlign=top;fontStyle=0;align=left;" vertex="1" parent="1">
          <mxGeometry x="2904" y="920" width="110" height="40" as="geometry" />
        </mxCell>
        <mxCell id="pGmbN54esB-qeb39x4uP-279" value="CIRC-9" style="rounded=1;whiteSpace=wrap;html=1;sketch=1;curveFitting=1;jiggle=2;fillColor=#f5f5f5;fontColor=#333333;strokeColor=#666666;verticalAlign=top;fontStyle=0;align=left;" vertex="1" parent="1">
          <mxGeometry x="3313" y="920" width="110" height="40" as="geometry" />
        </mxCell>
        <mxCell id="pGmbN54esB-qeb39x4uP-280" value="CIRC-20" style="rounded=1;whiteSpace=wrap;html=1;sketch=1;curveFitting=1;jiggle=2;fillColor=#f5f5f5;fontColor=#333333;strokeColor=#666666;verticalAlign=top;fontStyle=0;align=left;" vertex="1" parent="1">
          <mxGeometry x="3636" y="970" width="110" height="40" as="geometry" />
        </mxCell>
        <mxCell id="pGmbN54esB-qeb39x4uP-281" value="CIRC-4" style="rounded=1;whiteSpace=wrap;html=1;sketch=1;curveFitting=1;jiggle=2;fillColor=#f5f5f5;fontColor=#333333;strokeColor=#666666;verticalAlign=top;fontStyle=0;align=left;" vertex="1" parent="1">
          <mxGeometry x="3795" y="870" width="110" height="40" as="geometry" />
        </mxCell>
        <mxCell id="pGmbN54esB-qeb39x4uP-282" style="edgeStyle=orthogonalEdgeStyle;rounded=0;orthogonalLoop=1;jettySize=auto;html=1;exitX=0.5;exitY=1;exitDx=0;exitDy=0;" edge="1" parent="1" source="pGmbN54esB-qeb39x4uP-239" target="pGmbN54esB-qeb39x4uP-239">
          <mxGeometry relative="1" as="geometry" />
        </mxCell>
        <mxCell id="pGmbN54esB-qeb39x4uP-284" style="edgeStyle=orthogonalEdgeStyle;rounded=0;orthogonalLoop=1;jettySize=auto;html=1;entryX=0;entryY=0.5;entryDx=0;entryDy=0;" edge="1" parent="1" source="pGmbN54esB-qeb39x4uP-283" target="pGmbN54esB-qeb39x4uP-143">
          <mxGeometry relative="1" as="geometry" />
        </mxCell>
        <mxCell id="pGmbN54esB-qeb39x4uP-283" value="&lt;font style=&quot;font-size: 100px;&quot;&gt;ð§âð»&lt;/font&gt;" style="text;html=1;align=center;verticalAlign=middle;resizable=0;points=[];autosize=1;strokeColor=none;fillColor=none;" vertex="1" parent="1">
          <mxGeometry x="2270" y="355" width="120" height="130" as="geometry" />
        </mxCell>
        <mxCell id="pGmbN54esB-qeb39x4uP-285" value="&lt;font style=&quot;font-size: 19px;&quot;&gt;Requester&lt;/font&gt;" style="text;html=1;align=center;verticalAlign=middle;resizable=0;points=[];autosize=1;strokeColor=none;fillColor=none;" vertex="1" parent="1">
          <mxGeometry x="2275" y="470" width="110" height="40" as="geometry" />
        </mxCell>
      </root>
    </mxGraphModel>
  </diagram>
</mxfile>
